{
  "accessors": [
    {
      "bufferView": 0,
      "componentType": 5125,
      "count": 116448,
      "type": "SCALAR"
    },
    {
      "bufferView": 1,
      "componentType": 5126,
      "count": 28840,
      "max": [
        7.51639652252197,
        7.76302862167358,
        7.54256153106689
      ],
      "min": [
        -7.51639652252197,
        -0.0630289986729622,
        -6.72237300872803
      ],
      "type": "VEC3"
    },
    {
      "bufferView": 2,
      "componentType": 5126,
      "count": 28840,
      "type": "VEC3"
    },
    {
      "bufferView": 3,
      "componentType": 5126,
      "count": 28840,
      "type": "VEC2"
    }
  ],
  "asset": {
    "generator": "Substance Painter 6.1.1",
    "version": "2.0"
  },
  "bufferViews": [
    {
      "buffer": 0,
      "byteLength": 465792,
      "target": 34963
    },
    {
      "buffer": 0,
      "byteLength": 346080,
      "byteOffset": 465792,
      "target": 34962
    },
    {
      "buffer": 0,
      "byteLength": 346080,
      "byteOffset": 811872,
      "target": 34962
    },
    {
      "buffer": 0,
      "byteLength": 230720,
      "byteOffset": 1157952,
      "target": 34962
    }
  ],
  "buffers": [
    {
      "byteLength": 1388672,
      "uri": "Barrel.bin"
    }
  ],
  "images": [
    {
      "uri": "None_baseColor.png"
    },
    {
      "uri": "None_occlusionRoughnessMetallic.png"
    },
    {
      "uri": "None_normal.png"
    }
  ],
  "materials": [
    {
      "alphaMode": "OPAQUE",
      "name": "None",
      "normalTexture": {
        "index": 2
      },
      "occlusionTexture": {
        "index": 1
      },
      "pbrMetallicRoughness": {
        "baseColorTexture": {
          "index": 0
        },
        "metallicRoughnessTexture": {
          "index": 1
        }
      }
    }
  ],
  "meshes": [
    {
      "name": "Cylinder.005_Cylinder.006",
      "primitives": [
        {
          "attributes": {
            "NORMAL": 2,
            "POSITION": 1,
            "TEXCOORD_0": 3
          },
          "indices": 0,
          "material": 0,
          "mode": 4
        }
      ]
    }
  ],
  "nodes": [
    {
      "children": [
        1
      ],
      "name": "Barrel_grouped.obj"
    },
    {
      "children": [
        2
      ],
      "name": "Cylinder.005_Cylinder.006"
    },
    {
      "mesh": 0,
      "name": "Cylinder.005_Cylinder.006"
    }
  ],
  "samplers": [
    {
      "magFilter": 9729,
      "minFilter": 9985,
      "wrapS": 10497,
      "wrapT": 10497
    }
  ],
  "scene": 0,
  "scenes": [
    {
      "name": "Scene",
      "nodes": [
        0
      ]
    }
  ],
  "textures": [
    {
      "sampler": 0,
      "source": 0
    },
    {
      "sampler": 0,
      "source": 1
    },
    {
      "sampler": 0,
      "source": 2
    }
  ]
}